<?xml version="1.0" encoding="utf-8"?>
<!-- Svg Vector Icons : http://www.onlinewebfonts.com/icon -->
<!DOCTYPE svg PUBLIC "-//W3C//DTD SVG 1.1//EN" "http://www.w3.org/Graphics/SVG/1.1/DTD/svg11.dtd">
<svg version="1.1" xmlns="http://www.w3.org/2000/svg" xmlns:xlink="http://www.w3.org/1999/xlink" x="0px" y="0px" viewBox="0 0 1000 1000" enable-background="new 0 0 1000 1000" xml:space="preserve">
<metadata> Svg Vector Icons : http://www.onlinewebfonts.com/icon </metadata>
<g fill="#FFFFFF"><path d="M890.1,89.9l-7.5-7.5C834.5,34.3,770.9,9.9,707.9,10c-63-0.1-126.7,24.3-174.7,72.4l-72.8,72.9c-29.8,29.8-29.8,78.3,0,108.1c29.8,29.8,78.3,29.8,108.1,0l72.9-72.9c18.6-18.5,42.2-27.5,66.6-27.6c24.4,0.1,48,9,66.6,27.6l7.6,7.6c18.5,18.6,27.5,42.2,27.6,66.4c-0.1,24.5-9.1,48.2-27.7,66.8L604.8,508.3c-18.5,18.6-42.3,27.5-67.3,27.7c-23.7-0.1-47.3-9-65.9-27.7l-7.6-7.5L356,608.9l7.6,7.6c47.7,47.7,110.9,72.4,174,72.3h0.4c62.7,0,126.7-24,175-72.3l177.1-177.2c48.2-48.2,72.5-111.9,72.4-174.9C962.5,201.4,938.2,137.9,890.1,89.9z M435.1,733.2l-76.4,76.3c-18.5,18.6-42.3,27.5-67.3,27.6c-23.8-0.1-47.3-9-65.9-27.6L218,802c-18.6-18.6-27.5-42.3-27.6-66.8c0.1-24.2,9-47.7,27.6-66.3l177.2-177.2c18.6-18.6,42.3-27.5,66.6-27.7c24.4,0.1,48,9.1,66.6,27.7l7.6,7.5l0,0l108-108.1l-7.5-7.6l-13.7-13.6c-5.9-5.9-12.5-10.6-19.5-14.1c-42.4-29.6-92.2-44.6-141.5-44.5c-63-0.1-126.7,24.3-174.7,72.4L109.9,560.8c-48,48-72.5,111.5-72.4,174.4c-0.1,63,24.1,126.8,72.4,175l7.6,7.5c47.7,47.7,111,72.5,174,72.4h0.4c62.7,0,126.7-24,175-72.3l76.3-76.4c29.9-29.9,29.9-78.3,0-108.1C513.3,703.3,465,703.3,435.1,733.2z"/></g>
</svg>