<?xml version="1.0" encoding="utf-8"?>
<!-- Svg Vector Icons : http://www.onlinewebfonts.com/icon -->
<!DOCTYPE svg PUBLIC "-//W3C//DTD SVG 1.1//EN" "http://www.w3.org/Graphics/SVG/1.1/DTD/svg11.dtd">
<svg version="1.1" xmlns="http://www.w3.org/2000/svg" xmlns:xlink="http://www.w3.org/1999/xlink" x="0px" y="0px" viewBox="0 0 1000 1000" enable-background="new 0 0 1000 1000" xml:space="preserve">
<metadata> Svg Vector Icons : http://www.onlinewebfonts.com/icon </metadata>
<g fill="#FFFFFF"><g transform="translate(0.000000,511.000000) scale(0.100000,-0.100000)"><path d="M8258.9,4978c-471.2-60.5-987.9-240-1623.4-559.9l-350.2-177.3l-229.1,38.9c-328.6,58.3-1173.8,58.3-1485,0c-490.7-88.6-869-214-1286.2-421.5C1804.2,3121.2,844.5,1629.6,783.9-24c-13-354.5,13-745.8,69.2-1003l28.1-136.2l-138.3-255.1c-179.4-326.4-371.8-765.2-473.4-1080.8c-276.7-860.3-214-1517.5,183.7-1921.7c136.2-138.3,352.3-261.5,562-317.8c209.7-58.4,674.4-51.9,970.6,10.8c1333.7,289.6,3158.1,1476.4,4835.6,3147.3C7949.7-454.2,8801.4,698,9391.6,1899.8c613.9,1249.4,672.3,2189.7,172.9,2730.1C9287.8,4928.3,8825.2,5051.5,8258.9,4978z M8708.5,4199.8c149.1-30.3,276.7-129.7,332.9-252.9c95.1-209.7,41.1-644.2-136.2-1102.4l-69.2-179.4l-88.6,103.8c-322.1,380.4-871.1,821.4-1277.5,1026.8c-77.8,38.9-118.9,71.3-105.9,84.3c32.4,32.4,436.6,192.4,633.3,248.6C8317.2,4221.4,8516.1,4240.9,8708.5,4199.8z M1503.8-2665.5c166.4-259.4,350.2-479.9,637.7-767.4l296.1-296.2l-185.9-67c-324.2-116.7-484.2-153.5-722-166.5c-188.1-10.8-250.7-6.5-328.6,23.8c-116.7,45.4-218.3,153.5-248.6,265.9C879.1-3407,985-2844.9,1199-2360.7l56.2,129.7l84.3-155.6C1387-2471,1460.5-2596.4,1503.8-2665.5z"/><path d="M9566.7,533.7C8449.1-1303.7,6371.8-3368.1,4530.1-4474.8c-140.5-82.1-224.8-144.8-205.4-151.3c214-77.8,1113.2-125.4,1502.3-80c1031.1,121,1960.6,570.6,2689.1,1299.1C9542.9-2380.2,10012-962.1,9800.1,475.3C9743.9,855.8,9761.2,851.5,9566.7,533.7z"/></g></g>
</svg>